<?xml version="1.0" encoding="UTF-8"?>
<svg id="Layer_1" xmlns="http://www.w3.org/2000/svg" version="1.1" viewBox="0 0 368.5 311.81">
  <!-- Generator: Adobe Illustrator 30.2.1, SVG Export Plug-In . SVG Version: 2.1.1 Build 1)  -->
  <defs>
    <style>
      .st0 {
        fill: #fff;
      }

      .st1 {
        fill: #e67ab0;
      }

      .st2 {
        fill: #f4e6ec;
      }

      .st3 {
        fill: #51b848;
      }

      .st4 {
        fill: #164e9f;
      }

      .st5 {
        fill: #1da592;
      }
    </style>
  </defs>
  <g>
    <g>
      <path class="st1" d="M76.87,47.68c1.26-1.19,1.18,11.63.05,9.75"/>
      <g>
        <path class="st5" d="M134.69,299.58h-24.75c-.06-.58.69-.77,1.47-.77h21.81c.78,0,1.53.19,1.47.77Z"/>
        <path class="st5" d="M91.94,298.83l-12-.08c0-.54.72-.68,1.46-.68h9.07c.78,0,1.51.17,1.46.76Z"/>
        <path class="st5" d="M165.44,298.83h-9.75c-2.2-1.11,11.95-1.11,9.75,0Z"/>
        <path class="st5" d="M37.29,228.35c-.23-3.22-.21-6.53.02-9.75,1.08,2.91,1.11,6.84-.02,9.75Z"/>
        <path class="st5" d="M58.94,297.33c-1.99-.08-4.04.23-6-.21,1.86-1.64,4.17.03,6,.21Z"/>
        <path class="st5" d="M71.69,298.08c-1.93.02-4.08.1-6-.09,1.59-1.09,4.53-1.25,6,.09Z"/>
        <path class="st5" d="M49.94,296.59c-1.75,0-3.52.07-5.25-.24,1.5-1.06,3.82-.85,5.25.24Z"/>
      </g>
    </g>
    <g>
      <path class="st2" d="M316.63,309.2c.45.59.79,1.1,1.1,1.62h-2.88"/>
      <path class="st2" d="M312.44,310.82h-3.75c.46-.64,1.15-1.24,1.98-1.42.89-.2,1.54.61,1.77,1.42Z"/>
      <path class="st2" d="M250.85,272.77c1.12-2.05,2.49-4.13,3.39-6.29"/>
      <path class="st2" d="M212.75,139.94c-.96-.2-1.04-1.74-1.51-2.24"/>
      <path class="st2" d="M170.79,89.29"/>
      <path class="st2" d="M209.44,135.8c-.68-.71-1.33-1.39-2.05-2.03"/>
      <path class="st2" d="M217.5,144.68c1.22-1.62,2.67-1.23,3.44-2.93"/>
      <path class="st2" d="M230.4,152.6c-.43-.09-.86-.64-1.23-1.34"/>
      <g>
        <g>
          <path class="st5" d="M188.49,231.35c-.72-2.41-1.41-6.12.3-8.21l-.3,8.21Z"/>
          <path class="st5" d="M171.44,281.75c-1.51,1.23-3.81.35-6.01.6-.87.15-1.8-.03-1.25-.88,2.4.32,4.88-.2,7.26.28Z"/>
          <path class="st5" d="M206.87,259.84c-.2-1.78-.19-3.47-.05-5.25,1.07,1.36,1.03,3.85.05,5.25Z"/>
        </g>
        <path class="st2" d="M258.55,169c-.25-.1-.59.04-.85-.03"/>
      </g>
    </g>
    <g>
      <path class="st5" d="M163.44,58.92c-1.05,1.09-1.7,2.53-2.86,3.26l-5.52,3.49c-.31.86-.6.97-1.08,2.13-.25,2.16-1.21,3.73-2.87,4.7-1.62,1.99-2.73,4.33-4.15,6.48q-.59,1.02-.96,1.73c-1.41,1.45-2.15,1.95-2.9,2.92-.57.61-.4.39-.88.84-.37.63-1.24,1.23-1.53,1.47-.92.88-1.31,1.44-2.17,2.13l-10.79,5.71c.03,1.65,1.87,2.09,2.61,2.88.99.78,1.41,1.4,2.06,2.9,1.57,3.39,2.82,6.97,4.67,10.22.13.66,0,0,.28.82,2.97,9.37,6.27,18.78,10.31,27.73,2.26.48,3.12-.2,4.09-.23,1.99-.37,3.16-.95,5.37-1.75,2.47-.66,2.09-.63,3.86-1.07l24.25-7.85c8.2-2.65,16.05.91,22.15,6.34,0,0,2.05,1.32,2.05,2.03l1.8,1.89c.75.49,1.51,2.67,1.51,2.24l8.11,14.99.08.07c1.93,4.49,2.96,4.68,3.64,6.96-.23-.67,2.05,2.95,1.48,2.95-.61-1.73.11,0,1.94,2.35,2.71,5.98,4.64,8.95,7.4,14.29,3.3-2.73,5.82-5.65,8.52-8.48q.83-.38,1.27-.9c2.97-1.1,5.84-3.26,9.43-3.08,1.25.06,1.65-.18,3.09-.13,1.21.04-2.26-.01.85.03,4.77,3.01,8.77,5.4,10.27,10.42-1.26-2.18.2-.53.47,1.31.62,3.66.3,7.5-1.08,11-.88,2.07-1.06,2.67-2.11,4.41l-9.07,10.51c-1.64,1.37.34-.53-1.58,1.48-4.89,4.12-9.74,8.35-14.17,12.96-1.44.94,0,0-1.06.79-1.46.48-2.33,1.8-3.5,2.69-.68.42-1.71.99-2.21,2.31l.91,5c.17.93,1.61.62,2.15.68-.73,0,.84.23.84.23,1.74,1.09,4.14,1.56,5.92,2.37,1.33.95,1,.46,3.59,2.26,2.02,1.68,4.56,3.1,5.65,5.48,1.02,2.22.79,1.73.79,2.22,1.61,1.89.8,5.1,1.74,8.74-.02,3.37.1,2.96.04,5.25-.74,2.4-.28,3.6-1.91,7.38-.78,2.53-1.69,4.59-3.39,6.29-.86,1.57-3.7,2.5-4.41,4.28-1.7,1.05-.3.21-1.7,1.05-5.26,3.25-11.2,4.46-17.87,3.48-11.05-1.63-18.8-10.99-20-21.73.39-1.74.41-3.52-.05-5.25.81-9.97,7.31-18.2,16.91-21.69.01-2.61-.51-4.96-2.26-6.55-3.15-2.85-5.04-6.29-7.47-10.17l-21.66,5.34c-1.32.32-2.85.76-3.55,1.62-.9,2.65-.62,5.48-.3,8.21-.7,19.47-10.67,36.3-24.31,50.12,2.19.7,4.61.79,7.26.28,4.64.93,9.4.38,14.43.93,9.98,1.1,20.05,1.51,29.48,3.84-2.01-.47.31.32,0,0,.75.78,1.81,1.71,2.48,2.56.31,1.48.81,1.05.12,2.43-1.69,1.43-3.85,2.05-5.9,2.83-.43.16-.97.39-1.43.41-2.56.1-5.14.55-7.85,1.45-2.12-.18-4.02-.04-5.83.37-1.38.33-1.15.33-3.75.14-1.03.03-2.03.49-3.03.64-1.68-.7-3.53-.61-5.22-.02.16.37.99.03-.81.24-1.24.01-2.48.12-3.69.37-2.5-.34-5.03-.58-7.5.14-.89.03-.95.32-1.5.09-2,.25-3.99.66-6,.66-3.04-.65-6.71-.65-9.75,0-1.87-.02-2.32-.02-3.75,0l-8.2.03c-.52,0-2.76-.05-1.5.26-2.25-.44-3.9.76-7.55.46-8.08-.66-16.64-.62-24.75,0-5.07-.03-6.33-.38-9.89-.38.11-.4-3.83-.34-4.35-.34l-3.76-.03c-3.83-.7-8.16-.61-12-.08-2.77-.02-5.47-.69-8.25-.67-1.94-.65-4.02-.55-6-.09l-6.75-.66c-2.01-.43-4.01-.5-6-.21-.93-.21-2.09-.41-3-.52-1.71-.54-3.5-.6-5.25-.24-5.26-.95-18.38-.91-18.95-5.44-.26-2.03,1.05-3.69,3.3-4.18,11.49-2.49,22.99-2.76,35.17-3.96-16.06-14.36-25.44-33.58-26.92-54.42.45-3.23.45-6.51.02-9.75,1.32-18.8,9.1-36.1,22.35-49.72l-13.21-29.28c-3.55-7.87-1.69-16.06,4.19-22.45,9.19-8.39,19.7-14.69,30.49-21.12,4.9-2.92,9.51-5.68,14.48-7.43-10.9-7.22-17.63-18.77-18.67-31.18-.37-3.56-.37-6.54-.05-9.75,0,0,.19-.93,0-1.29.08-.94-.08-.57,0-.84.26-3.24.24-5.14,1.38-7.45.96-1.71.83-1.38,1.4-2.32l3.94-7.43c.95-1.9.36-.86,1.13-1.84,1.06-2.12,2.5-3.56,4.05-4.64.78-.91,1.9-1.43,1.77-1.25.13-.18.78-.89,1.33-1.22l.45-.71c1.81-1.31,1.01-.89,3.04-1.8.09-.28.89-.52,1.24-.73,5.45-3.24,11.71-5.1,18.59-5.12,15.88-.05,29.6,9.42,36.2,23.82,3.99,1.32,7.64,2.75,10.3,6.06,4.16,5.19,3.82,12.21,1.75,18Z"/>
      <g>
        <path class="st0" d="M109.19,94.25c8.39,1.16,15.2,6.38,18.22,14.69l13.4,36.84c2.29,6.3,9.47,1.62,15.11-.22l28.4-9.24c10.84-3.53,17.7,2.24,22.97,11.2,8.38,14.25,15.91,28.57,23.45,43.27.79,1.54,2.12,2.28,3.35,2.36,4.33.26,16.21-19.5,23.31-15.37,4.81,2.79,4.58,9.34,1.41,13.65-5.78,7.86-13.11,14.05-20.31,20.73-3.21,2.98-6.6,5.96-11.04,6.59-1.61.23-2.68-1.84-3.48-3.19l-32.09-54.61c-1.59-2.7-4.08-3.51-6.71-2.69l-22.53,6.96c-6.23-5.22-12.78-9.43-20.31-12.11-5.22-1.86-9.99-3.92-15.15-4.71-1.24.42-2.58.21-3.75-.34l-1.5-.44c-2.36.42-4.57.3-6.62-.36-1.21-4.24-8.31-26.27-12.03-27.37-1.32-.39-2.76-.11-4,.45l-21.57,9.71c-1.65.74-2.87,1.58-3.3,3.25-.35,1.32.08,2.83.82,4.47,5.11,11.47,10.27,22.6,14.42,34.42,1.94,5.54-.3,10.35-5.17,12.69-1.26.39-2.54.21-3.8-.08-4.49-1.34-6.97-4.62-8.97-9.17l-3.19-7.23-14.19-31.35c-2.43-5.37-1.12-11.09,3.27-15.07,6.56-5.96,34.88-24.21,41.37-25.97l6.47-1.75c.98-.84,2.79-.74,3.75,0Z"/>
        <g>
          <path class="st0" d="M188.05,211.54c-2.23-11.78-6.21-21.51-12.49-31.42,3.82-1.41,7.28-2.7,11.68-2.88,7.14,9.61,13.9,19.01,20.35,29.33-6.66,2.29-12.95,3.45-19.55,4.97Z"/>
          <path class="st0" d="M234.49,245.61c5.02,2.27,7.96,6.38,7.94,11.49-.02,5.15-3.43,8.67-7.97,10.93-1.72.42-3.6.82-5.27-.03-5.55-1.66-9.19-5.97-9-11.49.17-4.94,3.55-8.88,8.21-10.9,1.96-.68,4.13-.67,6.09,0Z"/>
          <path class="st0" d="M98.87,148.53c-2.99,1.52-5.62,1.26-8.26,3.36-2.62-4.8-4.56-9.89-6.44-15.55,3.54-1.57,6.29-3.13,9.99-4.16l4.71,16.36Z"/>
          <path class="st5" d="M118.94,164.63h-10.5c-2.43-1.11,12.93-1.11,10.5,0Z"/>
          <path class="st5" d="M121.94,147.61c-1.56.57-5.73,1.57-6.62-.36,2.2.19,4.5-.27,6.62.36Z"/>
          <path class="st5" d="M190.16,297.35c-1.56-.34-3.6.25-5.22-.02,1.23-1.41,3.83-1.12,5.22.02Z"/>
          <path class="st5" d="M84.49,184.88c-1.99.95-1.95.47-3.8-.08l3.8.08Z"/>
          <path class="st5" d="M127.19,148.39c-.94,1.02-2.91.74-3.75-.34,1.26-.02,2.51.15,3.75.34Z"/>
          <g>
            <path class="st0" d="M119.69,166.13c13.65,1.64,26.22,7.88,35.64,18.24,9.15,10.05,13.41,22.06,15.29,34.99l-.02,9c-2.83,24.29-18.06,44.97-42.27,52.02-2.61.76-5.71.69-7.88,1.85-3.87.79-8.11.74-12.02.1l-3.75-.75c-3.63.07-6.9-1.08-10.39-2.41-20.73-7.89-34.92-25.42-38.28-47.07-.63-2.1-.69-4.1-.18-6-.43-14.08,3.5-27.89,12.42-39.66,4.84,5.51,11.47,8.51,18.38,6.43,6.24-1.89,10.94-7.33,11.89-13.93-.36-1.49-.4-3.08.07-4.56-.3-2.11-1.24-3.96-1.26-6.45,3.5-.45,6.57-1.47,9.62-1.79,2.9-1.49,9.72-1.74,12.75,0Z"/>
            <g>
              <path class="st5" d="M108.44,164.63c3.3-.67,7.2-.63,10.5,0,.76,0,.87.93.75,1.5-2.03-.24-4.39-.89-6.72-.64l-6.03.64c-.09-.51-.09-1.17.43-1.4.35-.15.75-.1,1.07-.1Z"/>
              <path class="st5" d="M108.44,282.33l12.02-.1c-.2,1.42-11.31,1.19-13.52.1-.93-.39.89-.33,1.5,0Z"/>
              <path class="st5" d="M170.61,228.35l.02-9c.48,3.32.36,5.73-.02,9Z"/>
              <g>
                <path class="st5" d="M56.02,232.1c-.26-1.7-2.14-4.22-.18-6l.18,6Z"/>
                <path class="st5" d="M98.52,178.94c-.91-1.18-1.05-3.45.07-4.56.21,1.5.14,3.07-.07,4.56Z"/>
                <path class="st5" d="M114.44,251.51c1.86.74,3.86.74,6,0,11-3.51,12.89-10.22,16.22-20.9,4.23,1.21,7.91,2.09,11.45,3.78-.17,4.92-2.23,8.89-4.02,13.12-5.14,12.19-17.85,18.37-30.78,14.94-5.15-1.37-10.37-3.83-12.88-8.65-.88-1.69-.15-3.9,1.12-4.87,1.19-.9,2.79-.92,4.56-.19l5.99,2.45c.72.3,1.73.26,2.33.33Z"/>
                <path class="st5" d="M115.19,213.5c5.9,1.71,9.38,6.57,9.1,12.28s-4.37,10.24-10.41,11.28c-6.31,1.09-11.97-4.02-12.94-9.83-1.06-6.36,2.88-12.28,9-13.75,1.73.3,3.53.5,5.25,0Z"/>
                <path class="st5" d="M88.19,229.85c-1.28,2.64-1.61,6.17-.98,10.56-.39,1.36-1.94,1.61-3.08,1.4-7.18-1.32-.4-31.2,6.86-26.33,4.78,3.21-2.18,6.57-2.79,14.36Z"/>
                <path class="st5" d="M131.69,198.37c6.71.23,21.91,11.42,14.8,15.21-1.21.65-2.88.09-3.94-1.39-7.89-11.07-16.38-4.01-16.91-10.38-.12-1.43.62-2.81,2.25-3.19,1.27.26,2.61.34,3.81-.25Z"/>
                <path class="st5" d="M87.44,239.6l-.23.82c-.43,1.89-1.61-13.25.98-10.56-.16,2.04-.75,3.95-.75,6"/>
                <path class="st5" d="M120.44,251.51c-1.75.56-4.45,2.08-6,0,1.99.23,4.01.05,6,0Z"/>
                <path class="st5" d="M115.19,213.5c-1.37,1.06-3.88,1.04-5.25,0,2.1-.5,3.76.04,5.25,0Z"/>
                <path class="st5" d="M131.69,198.37c-.69,1.21-2.89,1.09-3.81.25,1.24-.3,2.54-.29,3.81-.25Z"/>
                <path class="st5" d="M87.44,239.6v-3.75c.08.9.4,2.54,0,3.75Z"/>
              </g>
            </g>
          </g>
          <g>
            <path class="st5" d="M234.49,245.61h-6.09c1.52-1.33,4.56-1.31,6.09,0Z"/>
            <path class="st5" d="M234.47,268.04c-1.91.96-3.86,1.6-5.27-.03l5.27.03Z"/>
          </g>
        </g>
        <path class="st5" d="M109.19,94.25c-1.05-.15-2.72-.28-3.75,0,0-1,1.16-.9,1.87-.9s1.87-.1,1.88.9Z"/>
        <g>
          <path class="st0" d="M112.19,19.25c2.5-.56,5.87-.94,8.25.02,11.54,2.4,20.28,9.84,24.26,20.62,3.76,3.58,13.23,2.75,12.48,11.89-.29,3.61-3.46,6.47-7.55,6.99-2.58.33-3.53,1.13-4.06,3.59-3.78,17.32-21.45,28.33-36.06,24.12s-23.24-15.79-24.98-29.81c-.81-2.69-.76-5.56-.03-8.27,2.68-15.03,12.92-26.61,27.69-29.15Z"/>
          <g>
            <path class="st5" d="M84.53,56.67c-1.53-2.56-1.35-6.1-.03-8.27,0,2.76-.17,5.52.03,8.27Z"/>
            <path class="st5" d="M116.48,34.56c.22,5.06-9.24-.55-14.98,11.43-.5,1.04-3.2-.15-3.56-.98-2.73-6.26,6.81-14.71,16.22-13.66,1.61.18,2.28,2.23,2.32,3.21Z"/>
            <path class="st5" d="M118.88,57.62c-3.23,1.83-6.04-.34-6.95-3.14-.8-2.46.17-5.94,3.36-6.58,2.52-.51,4.23,1.51,5.15,3.21,1.06,1.96.95,5.1-1.55,6.51Z"/>
            <path class="st5" d="M139.78,48.43l-.1,4.57c-.69,1.78-2.54,2.67-4.54,2.3-1.33-.24-2.71-1.55-3.22-3.05v-3.82c.72-2.17,2.51-3.42,4.36-3.16,1.67.23,3.25,1.47,3.51,3.16Z"/>
            <path class="st5" d="M139.65,34.46c-.23,3.43-4.74,2.95-8.51,2.36-1.27-.2-1.87-1.54-2.01-2.55-.11-.77.28-2.13,1.4-2.67,3.83-1.83,9.3.23,9.13,2.86Z"/>
            <path class="st5" d="M139.68,52.99c-.78-1.24-.9-3.4.1-4.57.28,1.85.35,3.38-.1,4.57Z"/>
            <path class="st5" d="M131.91,52.24c-.55-1.64-.08-2.83,0-3.82.91.92.82,2.88,0,3.82Z"/>
            <g>
              <path class="st5" d="M123.4,67.88c2.48.58,5.08.79,7.56-.03.84-.71,4.52-1.54,4.29.07-1.18,7.97-9.16,12.63-16.31,14.24-1.2-.45-2.52-.64-3.75-.14-10.69-2.14-14.81-14.24-11.03-23.73l5-.5c3.31,8.26,11.21,8.41,14.24,10.08Z"/>
              <path class="st5" d="M130.97,67.86c-1.81,1.53-5.25,1.3-7.56.03l7.56-.03Z"/>
              <path class="st5" d="M118.94,82.16c-1.6.36-2.77-.28-3.75-.14.83-.99,3.1-1.09,3.75.14Z"/>
              <path class="st0" d="M122.7,73.86c-2.15,3.11-6.19,3.39-9.17,2.14-2.79-1.17-4.63-4.58-3.81-7.97,3.83,2.95,7.78,4.55,12.97,5.82Z"/>
            </g>
          </g>
        </g>
      </g>
    </g>
  </g>
  <g>
    <g>
      <path class="st1" d="M165.54,56.32c1.16-1.16,1.14,11.33.09,9.5"/>
      <g>
        <path class="st4" d="M220.04,301.58l-9,.04h-.69s-13.16.06-13.16.06c-.06-.56.63-.75,1.36-.76l20.14-.09c.72,0,1.41.18,1.36.74Z"/>
        <path class="st4" d="M180.56,301.02l-11.08-.03c0-.52.66-.66,1.35-.67l8.38-.05c.72,0,1.4.17,1.35.74Z"/>
        <path class="st4" d="M248.43,300.72h-2.77s-6.23.04-6.23.04c-2.04-1.07,11.03-1.13,9-.04Z"/>
        <path class="st4" d="M129.79,232.57c-.23-3.14-.22-6.36-.03-9.5,1.01,2.83,1.06,6.66.03,9.5Z"/>
        <path class="st3" d="M150.08,299.7c-1.84-.07-3.73.25-5.54-.18,1.71-1.61,3.85.02,5.54.18Z"/>
        <path class="st3" d="M161.86,300.38c-1.78.02-3.77.11-5.54-.06,1.46-1.07,4.18-1.23,5.54.06Z"/>
        <path class="st3" d="M141.77,299.02c-1.62,0-3.25.09-4.85-.21,1.38-1.04,3.52-.84,4.85.21Z"/>
      </g>
    </g>
    <g>
      <path class="st2" d="M327.18,274.96c1.03-2,2.28-4.03,3.1-6.14"/>
      <path class="st2" d="M291.42,145.67c-.89-.19-.96-1.69-1.4-2.18"/>
      <path class="st2" d="M252.45,96.48"/>
      <path class="st2" d="M288.34,141.66c-.63-.69-1.24-1.35-1.9-1.97"/>
      <path class="st2" d="M295.83,150.27c1.12-1.59,2.46-1.21,3.16-2.87"/>
      <path class="st2" d="M307.77,157.94c-.4-.08-.8-.62-1.15-1.3"/>
      <g>
        <g>
          <path class="st3" d="M269.42,234.86c-.68-2.35-1.33-5.96.24-8l-.24,8Z"/>
          <path class="st4" d="M253.9,284.05c-1.39,1.2-3.52.35-5.55.61-.81.15-1.66-.02-1.16-.85,2.21.3,4.51-.21,6.71.24Z"/>
          <path class="st3" d="M286.52,262.55c-.19-1.73-.19-3.38-.07-5.11.99,1.32.97,3.75.07,5.11Z"/>
        </g>
        <path class="st2" d="M333.84,173.8c-.23-.09-.54.04-.78-.02"/>
      </g>
    </g>
    <g>
      <path class="st4" d="M245.53,66.92c-.97,1.07-1.56,2.47-2.63,3.19l-5.08,3.43c-.29.84-.55.95-.98,2.08-.22,2.11-1.1,3.64-2.63,4.59-1.49,1.95-2.5,4.23-3.8,6.33q-.54,1-.88,1.69c-1.29,1.42-1.98,1.91-2.67,2.86-.52.6-.37.38-.81.82-.34.62-1.14,1.2-1.4,1.44-.84.86-1.21,1.41-1.99,2.08l-9.94,5.61c.03,1.61,1.73,2.03,2.42,2.8.92.75,1.31,1.36,1.92,2.82,1.47,3.29,2.63,6.78,4.36,9.94.12.64,0,0,.27.8,2.78,9.12,5.87,18.28,9.64,26.99,2.09.46,2.88-.21,3.77-.24,1.83-.37,2.91-.94,4.95-1.73,2.27-.65,1.93-.62,3.56-1.06l22.36-7.75c7.56-2.62,14.83.82,20.48,6.08,0,0,1.9,1.28,1.9,1.97l1.67,1.84c.7.48,1.4,2.59,1.4,2.18l7.56,14.58.08.07c1.8,4.37,2.75,4.55,3.39,6.77-.22-.65,1.91,2.87,1.38,2.87-.57-1.68.11,0,1.8,2.28,2.53,5.82,4.32,8.7,6.89,13.9,3.04-2.68,5.35-5.53,7.83-8.3q.77-.37,1.17-.88c2.74-1.08,5.38-3.2,8.69-3.04,1.15.06,1.53-.18,2.86-.14,1.11.04-2.09,0,.78.02,4.42,2.91,8.12,5.23,9.53,10.11-1.18-2.12.18-.52.44,1.27.59,3.56.31,7.31-.95,10.72-.8,2.02-.96,2.6-1.93,4.3l-8.33,10.28c-1.51,1.35.31-.52-1.45,1.45-4.5,4.04-8.95,8.17-13.03,12.69-1.33.92,0,0-.98.78-1.35.47-2.15,1.77-3.22,2.64-.63.41-1.58.97-2.03,2.26l.87,4.87c.16.91,1.49.6,1.99.65-.68.01.78.22.78.22,1.61,1.06,3.83,1.5,5.48,2.29,1.23.92.93.45,3.33,2.19,1.87,1.63,4.22,3,5.25,5.32.95,2.16.74,1.68.74,2.16,1.49,1.84.76,4.96,1.64,8.51,0,3.29.1,2.89.06,5.11-.67,2.34-.25,3.51-1.73,7.2-.71,2.47-1.54,4.48-3.1,6.14-.79,1.53-3.4,2.45-4.05,4.19-1.56,1.03-.28.2-1.56,1.03-4.84,3.19-10.32,4.4-16.48,3.46-10.21-1.55-17.41-10.64-18.57-21.09.35-1.69.36-3.44-.07-5.11.7-9.72,6.67-17.76,15.52-21.21,0-2.55-.49-4.84-2.12-6.37-2.92-2.77-4.68-6.11-6.94-9.88l-19.98,5.3c-1.21.32-2.62.75-3.27,1.6-.82,2.59-.54,5.34-.24,8-.56,18.97-9.69,35.42-22.23,48.94,2.03.67,4.26.75,6.71.24,4.29.88,8.69.33,13.33.85,9.22,1.03,18.52,1.38,27.24,3.62-1.86-.45.29.31,0,0,.7.75,1.68,1.66,2.3,2.49.29,1.44.75,1.02.12,2.37-1.55,1.4-3.55,2.01-5.44,2.78-.39.16-.9.38-1.32.4-2.36.11-4.74.56-7.24,1.45-1.95-.17-3.72-.03-5.38.38-1.28.33-1.06.32-3.46.15-.95.04-1.87.49-2.8.64-1.55-.68-3.26-.58-4.82,0,.15.36.91.03-.74.24-1.15.02-2.29.13-3.41.37-2.31-.33-4.64-.54-6.92.17-.82.03-.88.31-1.38.1-1.84.25-3.68.66-5.54.67-2.81-.62-6.2-.61-9,.04-1.72-.01-2.15,0-3.46.02l-7.57.06c-.48,0-2.55-.04-1.38.26-2.08-.42-3.6.75-6.97.48-7.47-.61-15.37-.53-22.85.1-4.68-.01-5.85-.35-9.14-.33.1-.39-3.54-.31-4.02-.31h-3.47c-3.54-.68-7.54-.57-11.08-.04-2.56,0-5.05-.65-7.62-.62-1.8-.63-3.71-.51-5.54-.06l-6.24-.61c-1.86-.41-3.71-.47-5.54-.18-.86-.2-1.93-.39-2.77-.49-1.58-.52-3.23-.57-4.85-.21-4.86-.91-16.98-.81-17.52-5.22-.24-1.98.95-3.6,3.03-4.08,10.6-2.47,21.22-2.79,32.46-4.01-14.9-13.93-23.63-32.62-25.1-52.93.4-3.15.38-6.35-.03-9.5,1.14-18.33,8.24-35.22,20.42-48.55l-12.33-28.48c-3.32-7.66-1.63-15.64,3.77-21.9,8.45-8.21,18.12-14.4,28.06-20.71,4.51-2.87,8.75-5.58,13.33-7.3-10.09-6.99-16.36-18.22-17.38-30.31-.36-3.47-.37-6.37-.09-9.5,0,0,.17-.9,0-1.25.07-.91-.08-.55,0-.82.23-3.16.2-5.01,1.24-7.26.88-1.68.76-1.35,1.28-2.26l3.61-7.26c.87-1.85.33-.84,1.03-1.8.97-2.07,2.29-3.48,3.72-4.54.72-.89,1.75-1.4,1.63-1.23.12-.18.71-.87,1.22-1.2l.42-.7c1.66-1.28.93-.87,2.8-1.77.08-.27.82-.51,1.14-.72,5.02-3.18,10.79-5.02,17.15-5.07,14.66-.11,27.38,9.05,33.53,23.06,3.69,1.27,7.06,2.65,9.53,5.87,3.87,5.04,3.58,11.88,1.7,17.54Z"/>
      <g>
        <path class="st0" d="M195.59,101.57c7.75,1.1,14.06,6.16,16.89,14.24l12.53,35.84c2.14,6.13,8.75,1.54,13.95-.27l26.18-9.12c9.99-3.48,16.36,2.11,21.26,10.82,7.8,13.85,14.82,27.77,21.84,42.07.74,1.5,1.97,2.22,3.11,2.28,4,.24,14.88-19.07,21.46-15.08,4.46,2.7,4.27,9.08,1.36,13.3-5.3,7.68-12.04,13.75-18.67,20.29-2.95,2.92-6.06,5.84-10.16,6.47-1.49.23-2.49-1.78-3.23-3.09l-29.87-53.09c-1.48-2.63-3.78-3.4-6.21-2.6l-20.77,6.88c-5.78-5.06-11.84-9.14-18.81-11.72-4.83-1.79-9.24-3.78-14.01-4.53-1.14.41-2.38.21-3.46-.31l-1.39-.43c-2.18.42-4.21.31-6.11-.32-1.13-4.13-7.79-25.57-11.23-26.62-1.22-.37-2.55-.09-3.69.45l-19.87,9.55c-1.52.73-2.64,1.55-3.04,3.18-.31,1.28.09,2.75.77,4.36,4.77,11.15,9.59,21.98,13.47,33.49,1.82,5.39-.23,10.09-4.72,12.39-1.16.39-2.34.22-3.51-.07-4.15-1.29-6.45-4.48-8.33-8.9l-2.98-7.03-13.24-30.49c-2.27-5.23-1.08-10.8,2.95-14.7,6.04-5.83,32.1-23.74,38.09-25.49l5.97-1.74c.9-.82,2.57-.74,3.46-.02Z"/>
        <g>
          <path class="st0" d="M268.93,215.55c-2.11-11.47-5.83-20.93-11.67-30.57,3.52-1.39,6.71-2.66,10.77-2.86,6.63,9.33,12.92,18.47,18.92,28.5-6.14,2.26-11.94,3.41-18.03,4.92Z"/>
          <path class="st0" d="M311.96,248.57c4.65,2.19,7.38,6.19,7.38,11.17,0,5.02-3.13,8.46-7.31,10.69-1.59.42-3.32.81-4.87,0-5.13-1.59-8.51-5.78-8.36-11.16.14-4.81,3.24-8.67,7.53-10.66,1.8-.67,3.81-.67,5.62-.03Z"/>
          <path class="st0" d="M186.3,154.52c-2.76,1.5-5.18,1.26-7.61,3.31-2.44-4.66-4.25-9.62-6.01-15.13,3.26-1.55,5.79-3.08,9.2-4.1l4.42,15.92Z"/>
          <path class="st4" d="M204.91,170.13l-9.7.04c-2.25-1.07,11.94-1.13,9.7-.04Z"/>
          <path class="st4" d="M207.6,153.53c-1.43.56-5.28,1.55-6.11-.32,2.04.18,4.15-.28,6.11.32Z"/>
          <path class="st4" d="M271.25,299.17c-1.44-.33-3.32.26-4.82,0,1.13-1.38,3.54-1.1,4.82,0Z"/>
          <path class="st4" d="M173.18,190c-1.83.94-1.8.47-3.51-.07l3.51.07Z"/>
          <path class="st4" d="M212.45,154.27c-.87,1-2.68.73-3.46-.31,1.17-.03,2.32.13,3.46.31Z"/>
          <g>
            <path class="st0" d="M205.6,171.58c12.61,1.54,24.24,7.58,32.99,17.63,8.49,9.75,12.48,21.45,14.27,34.04l.02,8.77c-2.5,23.68-16.48,43.91-38.8,50.88-2.4.75-5.27.69-7.27,1.84-3.57.79-7.49.76-11.1.15l-3.47-.72c-3.36.08-6.38-1.02-9.6-2.3-19.18-7.61-32.36-24.63-35.56-45.72-.59-2.04-.66-3.99-.2-5.84-.46-13.72,3.11-27.2,11.29-38.71,4.49,5.35,10.63,8.25,17,6.19,5.75-1.86,10.07-7.19,10.91-13.63-.34-1.45-.38-3,.05-4.44-.28-2.06-1.16-3.85-1.2-6.28,3.23-.45,6.06-1.46,8.87-1.79,2.67-1.46,8.97-1.74,11.77-.05Z"/>
            <g>
              <path class="st4" d="M195.21,170.17c3.05-.67,6.65-.65,9.7-.04.7,0,.81.9.7,1.46-1.87-.23-4.06-.85-6.2-.6l-5.57.65c-.09-.49-.09-1.14.39-1.36.33-.15.69-.1.99-.1Z"/>
              <path class="st4" d="M195.73,284.88l11.1-.15c-.18,1.38-10.44,1.21-12.49.16-.86-.37.82-.32,1.39,0Z"/>
              <path class="st3" d="M252.9,232.02l-.02-8.77c.46,3.23.36,5.58.02,8.77Z"/>
              <g>
                <path class="st4" d="M147.1,236.15c-.25-1.66-2-4.11-.2-5.84l.2,5.84Z"/>
                <path class="st4" d="M186.11,184.15c-.85-1.15-.98-3.36.05-4.44.2,1.46.14,2.99-.05,4.44Z"/>
                <path class="st4" d="M201.13,254.82c1.72.71,3.56.7,5.54-.02,10.14-3.47,11.86-10.02,14.89-20.44,3.91,1.16,7.32,2,10.59,3.63-.13,4.79-2.02,8.67-3.65,12.8-4.69,11.9-16.4,17.98-28.36,14.69-4.77-1.31-9.59-3.69-11.93-8.38-.82-1.65-.16-3.8,1.02-4.75,1.1-.89,2.57-.9,4.21-.21l5.54,2.36c.67.29,1.59.25,2.15.31Z"/>
                <path class="st4" d="M201.66,217.77c5.46,1.65,8.69,6.37,8.45,11.93-.23,5.34-3.99,10-9.56,11.04-5.82,1.09-11.07-3.87-11.99-9.52-1.01-6.2,2.6-11.98,8.25-13.43,1.6.29,3.26.47,4.85-.01Z"/>
                <path class="st4" d="M176.8,233.82c-1.17,2.58-1.46,6.02-.86,10.3-.35,1.32-1.79,1.58-2.84,1.38-6.63-1.26-.5-30.41,6.22-25.69,4.43,3.11-1.99,6.41-2.52,14.01Z"/>
                <path class="st4" d="M216.83,202.95c6.2.2,20.28,11.03,13.73,14.76-1.12.64-2.66.1-3.64-1.34-7.34-10.75-15.15-3.84-15.66-10.05-.12-1.39.56-2.74,2.06-3.12,1.17.25,2.41.32,3.52-.26Z"/>
                <path class="st4" d="M176.15,243.32l-.21.8c-.39,1.84-1.54-12.9.86-10.3-.14,1.99-.68,3.85-.67,5.85"/>
                <path class="st4" d="M206.67,254.8c-1.61.55-4.1,2.05-5.54.02,1.84.22,3.7.03,5.54-.02Z"/>
                <path class="st4" d="M201.66,217.77c-1.26,1.03-3.58,1.03-4.85.01,1.94-.5,3.47.02,4.85-.01Z"/>
                <path class="st4" d="M216.83,202.95c-.63,1.18-2.67,1.07-3.52.26,1.15-.29,2.35-.29,3.52-.26Z"/>
                <path class="st3" d="M176.15,243.32l-.02-3.65c.08.87.38,2.47.02,3.65Z"/>
              </g>
            </g>
          </g>
          <g>
            <path class="st4" d="M311.96,248.57l-5.62.03c1.39-1.31,4.2-1.3,5.62-.03Z"/>
            <path class="st4" d="M312.03,270.42c-1.76.94-3.56,1.58-4.87,0h4.87Z"/>
          </g>
        </g>
        <path class="st4" d="M195.59,101.57c-.97-.14-2.51-.26-3.46.02,0-.97,1.07-.88,1.73-.89s1.72-.1,1.74.87Z"/>
        <g>
          <path class="st0" d="M198.03,28.47c2.31-.56,5.42-.94,7.62-.02,10.66,2.29,18.77,9.5,22.49,19.99,3.49,3.47,12.23,2.62,11.58,11.53-.26,3.51-3.17,6.32-6.94,6.84-2.38.33-3.25,1.11-3.74,3.52-3.41,16.9-19.69,27.7-33.19,23.65-13.11-3.93-21.53-15.29-23.2-28.94-.76-2.62-.73-5.42-.06-8.06,2.41-14.66,11.81-25.99,25.44-28.53Z"/>
          <g>
            <path class="st4" d="M172.66,65.06c-1.42-2.49-1.28-5.94-.06-8.06,0,2.69-.14,5.38.06,8.06Z"/>
            <path class="st4" d="M202.06,43.37c.23,4.93-8.53-.5-13.78,11.2-.46,1.02-2.96-.14-3.29-.94-2.55-6.09,6.23-14.36,14.91-13.38,1.49.17,2.12,2.17,2.16,3.12Z"/>
            <path class="st4" d="M204.37,65.84c-2.97,1.8-5.58-.31-6.43-3.03-.75-2.39.13-5.79,3.07-6.43,2.33-.51,3.91,1.45,4.77,3.11.99,1.9.9,4.96-1.41,6.35Z"/>
            <path class="st4" d="M223.63,56.79l-.07,4.45c-.62,1.74-2.33,2.61-4.18,2.26-1.22-.23-2.51-1.5-2.99-2.96l-.02-3.72c.66-2.12,2.3-3.35,4.01-3.1,1.54.22,3.01,1.42,3.25,3.07Z"/>
            <path class="st4" d="M223.45,43.18c-.2,3.34-4.36,2.89-7.85,2.33-1.17-.19-1.73-1.49-1.87-2.48-.11-.75.25-2.08,1.28-2.61,3.52-1.8,8.59.18,8.44,2.75Z"/>
            <path class="st4" d="M223.56,61.24c-.73-1.21-.85-3.31.07-4.45.27,1.8.34,3.29-.07,4.45Z"/>
            <path class="st4" d="M216.39,60.54c-.52-1.59-.09-2.75-.02-3.72.84.89.77,2.8.02,3.72Z"/>
            <g>
              <path class="st4" d="M208.6,75.82c2.29.56,4.7.75,6.98-.06.77-.7,4.17-1.52,3.96.05-1.05,7.78-8.4,12.35-15,13.95-1.11-.43-2.33-.61-3.46-.12-9.88-2.04-13.74-13.82-10.29-23.08l4.61-.51c3.1,8.03,10.39,8.15,13.2,9.77Z"/>
              <path class="st4" d="M215.58,75.76c-1.66,1.5-4.84,1.29-6.98.06l6.98-.06Z"/>
              <path class="st4" d="M204.54,89.76c-1.48.36-2.56-.26-3.46-.12.76-.97,2.85-1.08,3.46.12Z"/>
              <path class="st0" d="M207.97,81.64c-1.97,3.04-5.7,3.33-8.45,2.13-2.58-1.13-4.3-4.44-3.55-7.75,3.55,2.86,7.21,4.4,12,5.62Z"/>
            </g>
          </g>
        </g>
      </g>
    </g>
  </g>
</svg>